<mxfile host="app.diagrams.net" modified="2023-09-13T22:19:26.870Z" agent="Mozilla/5.0 (Windows NT 10.0; Win64; x64) AppleWebKit/537.36 (KHTML, like Gecko) Chrome/116.0.0.0 Safari/537.36 Edg/116.0.1938.76" version="21.7.5" etag="O9ws2Emw7mNkb7_ScbeO" type="github">
  <diagram name="Page-1" id="3Gsh2670xP5e92RrSAov">
    <mxGraphModel>
      <root>
        <mxCell id="0" />
        <mxCell id="1" parent="0" />
      </root>
    </mxGraphModel>
  </diagram>
</mxfile>
